<?xml version="1.0" encoding="utf-8"?>
<!-- Generator: Adobe Illustrator 24.0.2, SVG Export Plug-In . SVG Version: 6.00 Build 0)  -->
<svg version="1.1" xmlns="http://www.w3.org/2000/svg" xmlns:xlink="http://www.w3.org/1999/xlink" x="0px" y="0px"
	 viewBox="0 0 428.42 426.76" style="enable-background:new 0 0 428.42 426.76;" xml:space="preserve">
<style type="text/css">
	.st0{fill:none;stroke:#263238;stroke-width:7;stroke-miterlimit:10;}
	.st1{fill:#1E1C24;}
	.st2{fill:url(#SVGID_1_);}
	.st3{fill:none;stroke:url(#SVGID_2_);stroke-width:2;stroke-miterlimit:10;}
</style>
<g id="Background_Simple">
</g>
<g id="Furniture">
</g>
<g id="Plant">
</g>
<g id="Picture">
</g>
<g id="Floor">
</g>
<g id="Device">
	<polyline class="st0" points="83.85,7.48 11.23,7.48 11.23,87.63 	"/>
	<polyline class="st0" points="348.08,7.48 420.71,7.48 420.71,87.63 	"/>
	<polyline class="st0" points="83.85,414.57 11.23,414.57 11.23,334.42 	"/>
	<polyline class="st0" points="348.08,414.57 420.71,414.57 420.71,334.42 	"/>
	<g>
		<path class="st1" d="M367.88,43.02h-13.32h-13.32h-13.32h-13.32h-13.32h-13.32v13.32v13.32v13.32v13.32v13.32v13.32v13.32h13.32
			h13.32h13.32h13.32h13.32h13.32h13.32v-13.32v-13.32V96.29V82.98V69.66V56.34V43.02H367.88z M367.88,69.66v13.32v13.32v13.32
			v13.32h-13.32h-13.32h-13.32h-13.32h-13.32v-13.32V96.29V82.98V69.66V56.34h13.32h13.32h13.32h13.32h13.32V69.66z"/>
		<polygon class="st1" points="181.43,69.66 194.75,69.66 194.75,56.34 194.75,43.02 181.43,43.02 181.43,56.34 168.11,56.34 
			154.8,56.34 154.8,69.66 154.8,82.98 168.11,82.98 168.11,69.66 		"/>
		<polygon class="st1" points="234.7,69.66 248.02,69.66 248.02,82.98 234.7,82.98 234.7,96.29 248.02,96.29 248.02,109.61 
			261.34,109.61 274.66,109.61 274.66,96.29 261.34,96.29 261.34,82.98 261.34,69.66 274.66,69.66 274.66,56.34 274.66,43.02 
			261.34,43.02 248.02,43.02 248.02,56.34 234.7,56.34 221.39,56.34 221.39,69.66 221.39,82.98 234.7,82.98 		"/>
		<polygon class="st1" points="327.93,69.66 314.61,69.66 314.61,82.98 314.61,96.29 314.61,109.61 327.93,109.61 341.25,109.61 
			354.56,109.61 354.56,96.29 354.56,82.98 354.56,69.66 341.25,69.66 		"/>
		<polygon class="st1" points="101.53,109.61 114.84,109.61 114.84,96.29 114.84,82.98 114.84,69.66 101.53,69.66 88.21,69.66 
			74.89,69.66 74.89,82.98 74.89,96.29 74.89,109.61 88.21,109.61 		"/>
		<path class="st1" d="M74.89,136.25h13.32h13.32h13.32h13.32h13.32v-13.32v-13.32V96.29V82.98V69.66V56.34V43.02h-13.32h-13.32
			h-13.32H88.21H74.89H61.57H48.25v13.32v13.32v13.32v13.32v13.32v13.32v13.32h13.32H74.89z M61.57,109.61V96.29V82.98V69.66V56.34
			h13.32h13.32h13.32h13.32h13.32v13.32v13.32v13.32v13.32v13.32h-13.32h-13.32H88.21H74.89H61.57V109.61z"/>
		<polygon class="st1" points="221.39,122.93 221.39,109.61 234.7,109.61 234.7,96.29 221.39,96.29 221.39,82.98 208.07,82.98 
			208.07,96.29 208.07,109.61 208.07,122.93 208.07,136.25 221.39,136.25 		"/>
		<rect x="234.7" y="122.93" class="st1" width="13.32" height="13.32"/>
		<polygon class="st1" points="261.34,136.25 261.34,149.57 274.66,149.57 274.66,136.25 274.66,122.93 261.34,122.93 		"/>
		<rect x="221.39" y="136.25" class="st1" width="13.32" height="13.32"/>
		<polygon class="st1" points="128.16,149.57 128.16,162.88 141.48,162.88 154.8,162.88 154.8,149.57 141.48,149.57 		"/>
		<polygon class="st1" points="61.57,149.57 48.25,149.57 48.25,162.88 48.25,176.2 61.57,176.2 61.57,162.88 74.89,162.88 
			74.89,149.57 		"/>
		<rect x="168.11" y="162.88" class="st1" width="13.32" height="13.32"/>
		<polygon class="st1" points="367.88,162.88 367.88,149.57 354.56,149.57 341.25,149.57 341.25,162.88 354.56,162.88 354.56,176.2 
			367.88,176.2 		"/>
		<polygon class="st1" points="354.56,189.52 354.56,176.2 341.25,176.2 327.93,176.2 327.93,189.52 341.25,189.52 		"/>
		<rect x="314.61" y="189.52" class="st1" width="13.32" height="13.32"/>
		<polygon class="st1" points="367.88,202.84 354.56,202.84 341.25,202.84 341.25,216.16 341.25,229.47 354.56,229.47 
			354.56,242.79 367.88,242.79 381.2,242.79 381.2,229.47 381.2,216.16 381.2,202.84 381.2,189.52 367.88,189.52 		"/>
		<polygon class="st1" points="101.53,202.84 114.84,202.84 114.84,216.16 128.16,216.16 141.48,216.16 141.48,202.84 
			128.16,202.84 128.16,189.52 141.48,189.52 141.48,176.2 128.16,176.2 114.84,176.2 114.84,162.88 101.53,162.88 101.53,149.57 
			88.21,149.57 88.21,162.88 74.89,162.88 74.89,176.2 88.21,176.2 88.21,189.52 74.89,189.52 61.57,189.52 61.57,202.84 
			74.89,202.84 88.21,202.84 88.21,216.16 101.53,216.16 		"/>
		<rect x="74.89" y="216.16" class="st1" width="13.32" height="13.32"/>
		<path class="st1" d="M327.93,216.16h-13.32v-13.32h-13.32v-13.32h13.32V176.2h-13.32v-13.32h13.32h13.32v-13.32h-13.32h-13.32
			h-13.32v13.32h-13.32v13.32v13.32h-13.32v13.32h13.32h13.32v13.32h-13.32h-13.32h-13.32v13.32H234.7v-13.32h-13.32v13.32v13.32
			h13.32h13.32h13.32v13.32v13.32h-13.32H234.7v-13.32h-13.32h-13.32v13.32v13.32h-13.32v-13.32v-13.32h13.32v-13.32v-13.32v-13.32
			v-13.32h13.32h13.32v13.32h13.32v-13.32v-13.32h13.32V176.2h-13.32v-13.32v-13.32H234.7v13.32h-13.32v-13.32h-13.32v-13.32h-13.32
			v-13.32v-13.32V96.29h-13.32V82.98h-13.32v13.32H154.8v13.32v13.32v13.32v13.32h13.32v-13.32v-13.32v-13.32h13.32v13.32v13.32
			v13.32h13.32v13.32v13.32v13.32h-13.32h-13.32H154.8v13.32v13.32v13.32h-13.32h-13.32h-13.32v-13.32h-13.32v13.32H88.21v13.32
			h13.32v13.32H88.21v13.32h13.32h13.32h13.32h13.32v-13.32h-13.32h-13.32v-13.32h13.32h13.32v13.32h13.32v-13.32h13.32v-13.32
			h13.32v-13.32h-13.32v-13.32h13.32v13.32h13.32v13.32v13.32h-13.32h-13.32v13.32H154.8v13.32v13.32v13.32h13.32v13.32v13.32h13.32
			v-13.32h13.32v-13.32h13.32v13.32h13.32v-13.32v-13.32h13.32v13.32v13.32h13.32h13.32v13.32v13.32h13.32V322.7h13.32h13.32h13.32
			v13.32h13.32v13.32v13.32h13.32h13.32v13.32h13.32h13.32v-13.32v-13.32v-13.32h-13.32v13.32h-13.32v-13.32h-13.32V322.7h-13.32
			v-13.32h13.32v13.32h13.32h13.32v-13.32h13.32v-13.32v-13.32h-13.32h-13.32v13.32h-13.32v-13.32h-13.32v-13.32v-13.32h-13.32
			v-13.32h-13.32v-13.32h13.32v13.32h13.32h13.32v-13.32h-13.32V216.16z M181.43,282.74h-13.32v-13.32h13.32V282.74z M261.34,296.06
			h-13.32v-13.32h13.32V296.06z M274.66,229.47h13.32v13.32h-13.32V229.47z M314.61,269.43v13.32v13.32v13.32h-13.32h-13.32h-13.32
			v-13.32v-13.32v-13.32h13.32h13.32H314.61z"/>
		<rect x="48.25" y="229.47" class="st1" width="13.32" height="13.32"/>
		<polygon class="st1" points="74.89,242.79 61.57,242.79 61.57,256.11 48.25,256.11 48.25,269.43 61.57,269.43 74.89,269.43 
			74.89,256.11 88.21,256.11 88.21,242.79 		"/>
		<rect x="367.88" y="256.11" class="st1" width="13.32" height="13.32"/>
		<path class="st1" d="M114.84,282.74h-13.32H88.21H74.89H61.57H48.25v13.32v13.32v13.32v13.32v13.32v13.32v13.32h13.32h13.32h13.32
			h13.32h13.32h13.32h13.32v-13.32v-13.32v-13.32V322.7v-13.32v-13.32v-13.32h-13.32H114.84z M128.16,309.38v13.32v13.32v13.32
			v13.32h-13.32h-13.32H88.21H74.89H61.57v-13.32v-13.32V322.7v-13.32v-13.32h13.32h13.32h13.32h13.32h13.32V309.38z"/>
		<rect x="287.98" y="282.74" class="st1" width="13.32" height="13.32"/>
		<polygon class="st1" points="88.21,309.38 74.89,309.38 74.89,322.7 74.89,336.02 74.89,349.33 88.21,349.33 101.53,349.33 
			114.84,349.33 114.84,336.02 114.84,322.7 114.84,309.38 101.53,309.38 		"/>
		<rect x="194.75" y="322.7" class="st1" width="13.32" height="13.32"/>
		<rect x="154.8" y="322.7" class="st1" width="13.32" height="13.32"/>
		<rect x="234.7" y="322.7" class="st1" width="13.32" height="13.32"/>
		<polygon class="st1" points="287.98,336.02 274.66,336.02 274.66,349.33 274.66,362.65 287.98,362.65 287.98,349.33 
			301.29,349.33 301.29,336.02 		"/>
		<rect x="248.02" y="336.02" class="st1" width="13.32" height="13.32"/>
		<polygon class="st1" points="154.8,349.33 154.8,362.65 154.8,375.97 168.11,375.97 168.11,362.65 181.43,362.65 194.75,362.65 
			194.75,349.33 194.75,336.02 181.43,336.02 168.11,336.02 168.11,349.33 		"/>
		<rect x="234.7" y="349.33" class="st1" width="13.32" height="13.32"/>
		<rect x="301.29" y="349.33" class="st1" width="13.32" height="13.32"/>
		<rect x="208.07" y="362.65" class="st1" width="13.32" height="13.32"/>
		<rect x="314.61" y="362.65" class="st1" width="13.32" height="13.32"/>
		<polygon class="st1" points="248.02,362.65 248.02,375.97 261.34,375.97 274.66,375.97 274.66,362.65 261.34,362.65 		"/>
	</g>
	<linearGradient id="SVGID_1_" gradientUnits="userSpaceOnUse" x1="214.7275" y1="207.5753" x2="214.7275" y2="405.1111">
		<stop  offset="0" style="stop-color:#C1E6F4;stop-opacity:0.8"/>
		<stop  offset="0.8846" style="stop-color:#FFFFFF;stop-opacity:0"/>
	</linearGradient>
	<rect x="20.69" y="207.58" class="st2" width="388.07" height="197.54"/>
	<linearGradient id="SVGID_2_" gradientUnits="userSpaceOnUse" x1="20.694" y1="207.5753" x2="408.7609" y2="207.5753">
		<stop  offset="0" style="stop-color:#94ECFF;stop-opacity:0.5"/>
		<stop  offset="0.5348" style="stop-color:#B9E9F7"/>
		<stop  offset="1" style="stop-color:#94ECFF;stop-opacity:0.7"/>
	</linearGradient>
	<line class="st3" x1="20.69" y1="207.58" x2="408.76" y2="207.58"/>
</g>
<g id="Character">
</g>
</svg>
